<?xml version="1.0" encoding="UTF-8" standalone="no"?>
<svg xmlns:rdf="http://www.w3.org/1999/02/22-rdf-syntax-ns#" xmlns="http://www.w3.org/2000/svg" xml:space="preserve" height="108.29" width="512" version="1.1" xmlns:i="&amp;ns_ai;" y="0px" x="0px" xmlns:cc="http://creativecommons.org/ns#" viewBox="0 0 512 108.29384" xmlns:dc="http://purl.org/dc/elements/1.1/">
<g style="" transform="scale(.72052)"><g transform="translate(-40.6,-40.6)"><path d="m605 162.3h26.5l-0.1 14.8-0.3 0.6c-4.7 8.3-12.9 13.1-22.6 13.1-14.7 0-27.1-12.1-27.1-26.4s12.4-26.4 27.1-26.4c7.2 0 14 2.9 19 8l1.9 1.9-8.1 8.1-0.5-0.6c0-0.1-5.1-6.1-12.3-6.1-8.3 0-15.1 6.8-15.1 15.1s6.8 15.1 15.1 15.1c4.6 0 9.1-2.2 11.9-5.8v-0.7h-15.4v-10.7zm-70.4 26.8h39v-10.5h-27.7v-9.1h19.3v-10.6h-19.3v-8.6h27.7v-10.5h-39v49.3zm107 0h39v-10.5h-27.7v-9.1h19.3v-10.6h-19.3v-8.6h27.7v-10.5h-39v49.3zm-213.3-24.7c0 14.6-12.1 26.4-27.1 26.4-14.9 0-27.1-11.9-27.1-26.4 0-14.6 12.1-26.4 27.1-26.4s27.1 11.9 27.1 26.4zm-12.1 0c0-8.3-6.7-15.1-15-15.1-8.2 0-15 6.8-15 15.1s6.7 15.1 15 15.1 15-6.8 15-15.1zm31.4-24.6h-11.3v49.3h38.7v-10.5h-27.4v-38.8zm49.2 0h-11.3v49.3h38.8v-10.5h-27.4v-38.8zm-137.9 34.4c-2.9 3.3-7 5.3-11.3 5.3-8.2 0-15-6.8-15-15.1s6.7-15.1 15-15.1c4.3 0 8.4 1.9 11.3 5.2l0.4 0.5 8.9-7.7-0.5-0.5c-5.1-5.6-12.5-8.8-20.2-8.8-14.9 0-27.1 11.9-27.1 26.4 0 14.6 12.1 26.4 27.1 26.4 7.7 0 15.1-3.2 20.2-8.9l0.5-0.5-8.9-7.7-0.4 0.5zm69.4-86.1c0 14.6-12.1 26.4-27.1 26.4-14.9 0-27.1-11.9-27.1-26.4s12.1-26.4 27.1-26.4 27.1 11.8 27.1 26.4zm-12.1 0c0-8.3-6.7-15.1-15-15.1-8.2 0-15 6.8-15 15.1s6.7 15.1 15 15.1 15-6.8 15-15.1zm119.2 0c0 14.6-12.1 26.4-27.1 26.4s-27.1-11.9-27.1-26.4 12.1-26.4 27.1-26.4 27.1 11.8 27.1 26.4zm-12.1 0c0-8.3-6.7-15.1-15-15.1s-15 6.8-15 15.1 6.7 15.1 15 15.1 15-6.8 15-15.1zm227.9 0c0 14.6-12.1 26.4-27.1 26.4-14.9 0-27.1-11.9-27.1-26.4s12.1-26.4 27.1-26.4c14.9 0 27.1 11.8 27.1 26.4zm-12.1 0c0-8.3-6.7-15.1-15-15.1s-15 6.8-15 15.1 6.7 15.1 15 15.1 15-6.8 15-15.1zm-290.2-24.7h-11.3v49.3h38.8v-10.5h-27.4v-38.8zm170.2-0.8 19.2 50.1h-11.7l-3.8-10.1h-17l-3.7 10.1h-11.7l19.1-50.1h9.6zm-0.3 29.4-4.5-12-4.5 12h9zm-63.2 20.7h-11.4v-49.3h24.1c9.8 0 17.8 8 17.8 17.8 0 7.9-5.1 14.8-12.6 17l9.2 14.5h-12.2l-8.7-13.7h-6.3v13.7zm0-24.2h12.7c3.8-0.8 6.5-3.8 6.5-7.3 0-3.4-2.7-6.5-6.5-7.3h-12.7v14.6zm-196.7 9.4c-2.9 3.3-7 5.3-11.3 5.3-8.2 0-15-6.8-15-15.1s6.7-15.1 15-15.1c4.3 0 8.4 1.9 11.3 5.2l0.4 0.5 8.9-7.7-0.5-0.5c-5.1-5.6-12.5-8.8-20.2-8.8-14.9 0-27.1 11.8-27.1 26.4s12.1 26.4 27.1 26.4c7.7 0 15.1-3.2 20.2-8.9l0.5-0.5-8.9-7.7-0.4 0.5zm331.4-9.8c0 13.8-10.8 24.7-24.7 24.7h-8.6-0.6-10.5v-49.4h19.7c13.9 0 24.7 10.8 24.7 24.7zm-10.9 0c0-7.8-6.3-14.1-13.9-14.1h-8.2v28.2h8.2c7.6 0 13.9-6.3 13.9-14.1z"/></g><g style="" transform="translate(-40.6,-40.6)"><path d="m186.2 85.9-53.5 53.5-1.6-1.6 19.1-19.1v-1.3l76.8-76.8h3.3l-28.5 28.5c-4.4 3.1-14.7 15.3-15.6 16.8zm29.1-23.8 21.3-21.3h-3.3l-23.7 23.7c1.9-0.9 3.8-1.7 5.7-2.4zm-24.5 11.4 32.8-32.8h-3.3l-70.2 70.3v1.3l-22.3 22.3 1.6 1.6 61.4-61.4v-1.3zm33.4-13.8 18.9-18.9h-3.3l-19.8 19.8c1.4-0.3 2.8-0.7 4.2-0.9zm-33.4 0.8 19.8-19.8h-3.3l-57.2 57.3v1.3l-28.8 28.8 1.6 1.6 68-68v-1.2zm0 6.5 26.3-26.3h-3.3l-63.8 63.8v1.3l-25.6 25.6 1.6 1.6 64.7-64.7v-1.3zm53.1-7.5 18.8-18.8h-3.3l-18.4 18.4c1 0.1 2 0.3 2.9 0.4zm14.3 31.3c-0.5-0.5-1.1-1.1-1.7-1.6l-46.5 46.5c0.5 0.6 1.1 1.1 1.6 1.7l46.6-46.6zm-26.6-32 18.1-18.1h-3.3l-18.4 18.4 3.6-0.3zm22.6 3.5 21.5-21.5h-3.3l-20.7 20.7c0.9 0.2 1.7 0.5 2.5 0.8zm-70.3 28-33.8 33.7v1.3l-15.8 15.8 1.6 1.6 45.1-45c0.7-2.4 2.1-6 2.9-7.4zm54.2-31.5 18.1-18.1h-3.3l-18 18c1.1 0 2.1 0.1 3.2 0.1zm11.1 1.9 20-20h-3.3l-19.3 19.3c0.9 0.2 1.8 0.5 2.6 0.7zm-58.4-6.7 13.3-13.3h-3.3l-50.7 50.8v1.2l-46.2 46.2c0.6 0.5 1.2 1 1.8 1.4l85.1-85.1v-1.2zm-84.9 8 21.3-21.3h-3.2l-23.7 23.7c1.8-0.9 3.7-1.7 5.6-2.4zm16.3-3.2 18.1-18.1h-3.3l-18.4 18.4 3.6-0.3zm12.3 0.7 18.8-18.8h-3.3l-18.4 18.4c1 0.1 1.9 0.3 2.9 0.4zm-42.1 48.6 27.9-27.9c-1.4 0.2-2.8 0.5-4.2 0.9l-22.8 22.8c-0.4 1.4-0.7 2.8-0.9 4.2zm36.2-49.2 18.1-18.1h-3.3l-18 18c1.2-0.1 2.2 0 3.2 0.1zm55.1 77.1-27.3 27.3 1.6 1.6 0.6 0.6 26.5-26.5c0-0.3-1.1-2.3-1.4-3zm-88.4-37.3 15.5-15.5c-6.7 3.2-12.2 8.7-15.5 15.5zm19.5-39 18.9-18.9h-3.3l-19.9 19.9c1.5-0.5 2.9-0.8 4.3-1zm35.3 0.5-3 3c0.8 0.3 1.5 0.7 2.2 1l23.5-23.5h-4.5l-18.2 18.2v1.3zm7.4 8.9 28.3-28.3h-4.5l-26.5 26.5c0.4 0.2 2.2 1.4 2.7 1.8zm-7.4-21.9-12.9 12.9c0.9 0.2 1.8 0.4 2.6 0.6l20-20h-4.5l-5.2 5.2v1.3zm11 24.7 29.7-29.7v-1.5h-3l-29.2 29.2c0.6 0.5 2 1.5 2.5 2zm-7.6-5.4 25.8-25.8h-4.5l-24.2 24.2c0.4 0.2 2.3 1.3 2.9 1.6zm-112.8-25.8v1.9l1.9-1.9h-1.9zm123.9 34.3 26.3-26.3v-1.3l6.7-6.7h-3.3l-32.1 32.1c0.3 0.3 1.7 1.6 2.4 2.2zm-14.5-21.3-7.8 7.8c0.8 0.3 1.6 0.5 2.4 0.8l21.5-21.6h-4.5l-11.7 11.7v1.3zm51.7 54.4 27.8-27.8c-1.4 0.2-2.8 0.5-4.2 0.9l-22.7 22.7-0.9 4.2zm3-9.5 15.4-15.4c-6.7 3.2-12.1 8.7-15.4 15.4zm-57.7-9.4-46.5 46.5c0.5 0.6 1 1.1 1.6 1.7l46.5-46.5c-0.5-0.6-1.1-1.1-1.6-1.7zm17.1 57.8 17.1-17.1c-0.2-0.6-0.9-2.9-1-3.5l-18.4 18.4 1.5 1.4 0.8 0.8zm-20.7-60.7-45.8 45.8c0.4 0.6 0.9 1.3 1.4 1.9l46.2-46.2c-0.6-0.6-1.2-1-1.8-1.5zm47.3 91.4 16.7-16.7l-2.1-1.2-26.2 26.2 1.6 1.6 0.6 0.6 9.4-9.4v-1.1zm10.7-62.7 35-35c-0.8-0.1-2-0.1-3.2 0l-31.8 31.8c-0.1 0.6-0.1 2 0 3.2zm17.6 50.7-25.1 25.1h3.3l24.5-24.5c-1-0.1-1.8-0.4-2.7-0.6zm43.8-99.2 25.8-25.8h-3.3l-24.6 24.6c0.8 0.4 1.5 0.8 2.1 1.2zm-4.2-2.3 23.5-23.5h-3.2l-22.5 22.5c0.7 0.3 1.5 0.7 2.2 1zm8.2 4.9 28.3-28.3h-3.2l-27 27c0.6 0.4 1.3 0.8 1.9 1.3zm-83.8 65.5c-0.2-0.4-1-2.5-1.3-3.2l-16.6 16.6 2.3 2.2 15.6-15.6zm7.7 49.6 21.1-21.1c-0.8-0.3-1.5-0.7-2.2-1l-27.2 27.2 1.5 1.5h1.5l5.4-5.4v-1.2zm23.4-20.1-26.8 26.8h3.3l25.9-25.9-2.4-0.9zm36.8-79.1c-0.7-0.4-1.3-0.8-2-1.2l-44.2 44.2c0.4 0.7 0.7 1.4 1.1 2.1l45.1-45.1zm-60.2 86.2 12.6-12.6c-0.7-0.4-1.3-0.9-1.9-1.3l-25.5 25.5 1.6 1.6 0.6 0.6 12.6-12.6v-1.2zm0-6.5 8.8-8.8l-1.8-1.5-25.1 25.1 1.6 1.6 0.6 0.6 15.9-15.9v-1.1zm51.3-83.8l-2.7-0.6-37.6 37.6c0.1 0.9 0.3 1.8 0.5 2.8l39.8-39.8zm-51.3 70.7 2-2c-0.5-0.6-1-1.1-1.5-1.7l-25.1 25.1 1.6 1.6 0.6 0.6 22.4-22.4v-1.2zm-35.6-13.1 1.5 1.4 0.8 0.8 21.5-21.5c-0.1-0.9-0.3-3.3-0.3-4.2l-23.5 23.5zm33.3 5.7-25.6 25.6 1.6 1.6 0.6 0.6 25.3-25.3c-0.4-0.5-1.7-2.2-1.9-2.5zm58.3-61.6c-0.8-0.4-1.5-0.7-2.3-1l-41.6 41.6c0.3 0.8 0.5 1.6 0.9 2.4l43-43zm-56 75.6 5.3-5.3c-0.6-0.5-1.1-1.1-1.7-1.6l-25 25 1.6 1.6 0.6 0.6 19.1-19.1v-1.2zm-30-14.4 19-19c-0.1-0.6-0.6-3.2-0.7-3.8l-20.7 20.7 0.7 0.6 1.7 1.5zm25.2-3.6-26.3 26.3 1.6 1.6 0.6 0.6 25.8-25.8c-0.3-0.3-1.4-2.1-1.7-2.7zm-5.8-39.8-30.1 30.1v1.3l-11.9 11.9c3.9-1.8 7.4-4.2 10.3-7.1l1-1c0.4-0.4 0.9-0.8 1.3-1.3l28.4-28.4c0.1-1.2 0.6-4 1-5.5zm-1.6 12.6c0-1.7 0.2-4.2 0.2-4.8l-27.1 27.1 0.7 0.6 1.7 1.6 24.5-24.5zm76.2-25.3c-0.6-0.5-1.2-1-1.8-1.4l-45.8 45.8c0.4 0.6 0.9 1.3 1.4 1.9l46.2-46.3zm-101.3 72.6 1.3 1.3 0.6 0.6 9.5-9.5c-2.4 2.1-6.7 5.1-11.4 7.6zm146.7-23.7-54.2 54.2h3.3l50.9-50.9v-3.3zm0 32.6-16.2 16.3 1.6 1.6 14.6-14.6v-3.3zm-17.9 14.6 17.9-17.9v-3.3l-19.5 19.5 1.6 1.7zm17.9-53.7-60.7 60.7h3.3l57.5-57.5v-3.2zm0 13-29.2 29.3 1.6 1.6 27.7-27.7v-3.2zm-5.3 47.7 5.4-5.4v-3.3l-8.6 8.6h3.2zm5.3-41.1-26 26 1.6 1.6 24.4-24.4v-3.2zm0 6.5-22.8 22.8 1.6 1.6 21.2-21.2v-3.2zm0 19.5-13 13 1.6 1.6 11.4-11.4v-3.2zm-63.7-7.9-23.1 23.1h3.3l23.3-23.3c-1.1 0.1-2.3 0.1-3.5 0.2zm-12.1-0.9-23.9 23.9h3.3l23.5-23.5c-1-0.1-2-0.2-2.9-0.4zm5.8 0.8-23.2 23.1h3.3l23-23c-1.1 0-2.1-0.1-3.1-0.1zm34.4-8.4-31.6 31.5h3.3l37.7-37.7c-2.7 2.2-6.6 4.7-9.4 6.2zm-12.3 5.7-25.8 25.8h3.3l27.9-27.9c-1.8 0.8-3.6 1.5-5.4 2.1zm47.9 25.8v-2.1l-2.1 2.1h2.1zm-56.5-23.7-23.7 23.7h3.3l24.6-24.6c-1.4 0.4-2.8 0.7-4.2 0.9zm-12-20.5c1.1 0.1 2.6 0.2 3.1 0.1l65.4-65.4v-3.3l-68.5 68.6zm68.5-71.8v-3.3l-74.1 74.1 2.7 0.6 71.4-71.4zm-83.1 66.9l2.1 1.2 81.1-81.1v-3.3l-83.2 83.2zm83.1-76.7-78.9 78.9c0.8 0.3 1.5 0.6 2.3 0.9l76.6-76.6v-3.2zm-29.6 6.9 29.7-29.7v-1.5h-1.8l-29.7 29.7 1.8 1.5zm29.6-19.9-86.9 86.9c0.6 0.5 1.2 1 1.8 1.4l85.1-85.1v-3.2zm-26.2 23 26.3-26.3v-3.3l-27.9 27.9c0.5 0.6 1 1.2 1.6 1.7zm26.2 42.1-28.2 28.3 1.7 1.6 26.6-26.6v-3.3zm0-13-35 35 1.7 1.6 33.3-33.3v-3.3zm-57.8 41.5 57.8-57.8v-3.3l-61.9 61.9c1.5-0.2 2.8-0.4 4.1-0.8zm57.8-18.7v-3.3l-24.9 24.9 1.7 1.6 23.2-23.2zm-31.6 15.3 1.7 1.6 30-30v-3.3l-31.7 31.7zm-11.4-4.8 43-43v-3.3l-52.7 52.7c3.6-1.6 6.9-3.8 9.7-6.4zm-216.5-88.2l8.4-8.4h-3.3l-5.2 5.2v3.2zm222.9 88.3 36.7-36.7v-3.3l-38.4 38.4 1.7 1.6zm-222.9-29.7 67-67h-3.3l-63.8 63.8v3.2zm0-6.6 60.5-60.5h-3.3l-57.2 57.3v3.2zm0 13.1 73.5-73.5h-3.3l-70.2 70.2v3.3zm0 6.5l38.3-38.3c3.6-5.1 8.1-9.7 13.3-13.3l28.4-28.4h-3.3l-76.8 76.8v3.2zm0 13 29.2-29.2c0.2-1.4 0.5-2.8 0.9-4.1l-30.1 30.1v3.2zm0-6.5 31.5-31.5c0.7-1.9 1.4-3.7 2.3-5.5l-33.8 33.7v3.3zm0-32.6 54-54h-3.3l-50.7 50.8v3.2zm0 42.4v3.3l28.5-28.5c0-1.2 0.1-2.3 0.2-3.5l-28.7 28.7zm0-68.4 28-28h-3.3l-24.7 24.7v3.3zm0-6.5 21.4-21.4h-3.3l-18.1 18.1v3.3zm11.7-21.5-11.7 11.7v3.3l14.9-14.9h-3.2zm-11.7 47.5 47.5-47.5h-3.3l-44.2 44.3v3.2zm0-6.5 41-41h-3.3l-37.7 37.8v3.2zm31.2-41-31.2 31.3v3.3l34.5-34.5h-3.3zm67.6 43.1-44.2 44.2c0.4 0.7 0.7 1.4 1.1 2.1l45.2-45.1c-0.7-0.5-1.4-0.9-2.1-1.2zm-14.4-3.9h-1.3l-31.8 31.8v1.5c0 0.6 0 1.1 0.1 1.7l35-35h-2zm-55.5 93.3 1.6 1.6 19-19l-1.8-1.5-18.8 18.9zm15.5-21.9-18.7 18.7 1.6 1.6 18.7-18.7l-1.6-1.6zm44.9-71-37.7 37.7c0.1 0.9 0.3 1.8 0.5 2.7l39.8-39.8c-0.8-0.2-1.7-0.4-2.6-0.6zm-89.3 66.5 28.7-28.7c-0.1-1-0.2-2-0.2-3.1l-28.6 28.6v3.2zm41.2 1.1-41.3 41.3v1.7h1.6l41.2-41.2c-0.5-0.7-1-1.2-1.5-1.8zm53.2-66.2-41.6 41.6c0.3 0.8 0.5 1.6 0.9 2.4l43-43c-0.8-0.4-1.5-0.7-2.3-1zm-94.4 74.9v3.3l30.8-30.9c-0.3-0.8-0.5-1.7-0.7-2.5l-30.1 30.1zm0 9.8 32.6-32.6c-0.3-0.8-0.6-1.5-0.9-2.3l-31.7 31.7v3.2zm0-13.1 29.6-29.6c-0.2-0.9-0.3-1.8-0.5-2.8l-29.1 29.1v3.3zm0 32.6 39.8-39.8c-0.5-0.6-0.9-1.2-1.4-1.9l-38.4 38.4v3.3zm0-6.5 37.1-37.1c-0.4-0.7-0.8-1.3-1.2-2l-35.9 35.9v3.2zm0-6.5 34.7-34.7c-0.4-0.7-0.7-1.4-1.1-2.2l-33.6 33.6v3.3z" class="st0" fill="#d09b2c"/></g></g></svg>