<svg xmlns="http://www.w3.org/2000/svg" viewBox="0 0 200 200" width="32" height="32" role="img" aria-label="Cal Barba">
  <title>Cal Barba</title>
  <rect x="6" y="6" width="188" height="188" rx="48" fill="#e7d8cc"></rect>
  <g transform="translate(100 97) scale(1.06) translate(-100 -97)">
    <path d="M 107 143 C 109 89, 124 92, 130.0 51.5 Q 133 43, 136.4 51.3 C 152.5 73, 166 77, 166 113 L 166.0 113.0 L 161.5 116.9 L 168.7 126.5 L 150.3 126.7 L 157.5 136.3 L 139.0 136.4 L 146.2 146.0 L 121.0 152.0  Q 111.0 154, 107 143 Z" fill="#8a4226"></path>
  <path d="M 93.0 143 C 91.0 89, 76.0 92, 70.0 51.5 Q 67.0 43, 63.6 51.3 C 47.5 73, 34.0 77, 34.0 113 L 34.0 113.0 L 38.5 116.9 L 31.3 126.5 L 49.7 126.7 L 42.5 136.3 L 61.0 136.4 L 53.8 146.0 L 79.0 152.0  Q 89.0 154, 93.0 143 Z" fill="#8a4226"></path>
  </g>
</svg>